HIERARCHY
ROOT Hips
{
	OFFSET 45.813999 -10.164816 100.089996
	CHANNELS 6 Xposition Yposition Zposition Xrotation Yrotation Zrotation
	JOINT spine
	{
		OFFSET 0.000000 -0.507026 8.817039
		CHANNELS 3 Xrotation Yrotation Zrotation
		JOINT spine1
		{
			OFFSET 0.000000 -0.000001 10.776604
			CHANNELS 3 Xrotation Yrotation Zrotation
			JOINT spine2
			{
				OFFSET 0.000000 -0.000002 10.325897
				CHANNELS 3 Xrotation Yrotation Zrotation
				JOINT Neck
				{
					OFFSET 0.000000 -1.263955 26.511002
					CHANNELS 3 Xrotation Yrotation Zrotation
					JOINT Head
					{
						OFFSET 0.000000 -0.000001 8.009659
						CHANNELS 3 Xrotation Yrotation Zrotation
						End Site
						{
							OFFSET 0.000000 6.393857 19.387894
						}
					}
				}
				JOINT RightShoulder
				{
					OFFSET -4.347950 0.605420 11.151199
					CHANNELS 3 Xrotation Yrotation Zrotation
					JOINT RightArm
					{
						OFFSET 0.000000 -0.000003 14.625793
						CHANNELS 3 Xrotation Yrotation Zrotation
						JOINT RightArmRoll
						{
							OFFSET 0.000000 -0.000001 7.383392
							CHANNELS 3 Xrotation Yrotation Zrotation
							JOINT RightForeArm
							{
								OFFSET 0.000000 -0.000004 21.505203
								CHANNELS 3 Xrotation Yrotation Zrotation
								JOINT RightForeArmRoll
								{
									OFFSET 0.000000 -0.000001 8.285324
									CHANNELS 3 Xrotation Yrotation Zrotation
									JOINT RightHand
									{
										OFFSET 0.000000 -0.000003 16.626801
										CHANNELS 3 Xrotation Yrotation Zrotation
										End Site
										{
											OFFSET 0.000000 0.000000 0.100006
										}
									}
								}
							}
						}
					}
				}
				JOINT LeftShoulder
				{
					OFFSET 4.347950 0.605420 11.151199
					CHANNELS 3 Xrotation Yrotation Zrotation
					JOINT LeftArm
					{
						OFFSET 0.000000 -0.000003 14.625793
						CHANNELS 3 Xrotation Yrotation Zrotation
						JOINT LeftArmRoll
						{
							OFFSET 0.000000 -0.000001 7.383392
							CHANNELS 3 Xrotation Yrotation Zrotation
							JOINT LeftForeArm
							{
								OFFSET 0.000000 -0.000004 21.505203
								CHANNELS 3 Xrotation Yrotation Zrotation
								JOINT LeftForeArmRoll
								{
									OFFSET 0.000000 -0.000001 8.285324
									CHANNELS 3 Xrotation Yrotation Zrotation
									JOINT LeftHand
									{
										OFFSET 0.000000 -0.000003 16.626801
										CHANNELS 3 Xrotation Yrotation Zrotation
										End Site
										{
											OFFSET 0.000000 0.000000 0.100006
										}
									}
								}
							}
						}
					}
				}
			}
		}
	}
	JOINT RightUpLeg
	{
		OFFSET -7.815102 1.202170 -1.433090
		CHANNELS 3 Xrotation Yrotation Zrotation
		JOINT RightUpLegRoll
		{
			OFFSET 0.000000 -0.000003 19.495895
			CHANNELS 3 Xrotation Yrotation Zrotation
			JOINT RightLeg
			{
				OFFSET 0.000000 0.000004 -24.142700
				CHANNELS 3 Xrotation Yrotation Zrotation
				JOINT RightLegRoll
				{
					OFFSET 0.000000 -0.000004 24.221703
					CHANNELS 3 Xrotation Yrotation Zrotation
					JOINT RightFoot
					{
						OFFSET 0.000000 -0.000004 20.160500
						CHANNELS 3 Xrotation Yrotation Zrotation
						JOINT RightToeBase
						{
							OFFSET 0.000000 -0.000003 16.853195
							CHANNELS 3 Xrotation Yrotation Zrotation
							End Site
							{
								OFFSET 0.007145 0.940780 8.161865
							}
						}
					}
				}
			}
		}
	}
	JOINT LeftUpLeg
	{
		OFFSET 7.815102 1.202170 -1.433090
		CHANNELS 3 Xrotation Yrotation Zrotation
		JOINT LeftUpLegRoll
		{
			OFFSET 0.000000 -0.000003 19.496002
			CHANNELS 3 Xrotation Yrotation Zrotation
			JOINT LeftLeg
			{
				OFFSET 0.000000 -0.000004 24.142593
				CHANNELS 3 Xrotation Yrotation Zrotation
				JOINT LeftLegRoll
				{
					OFFSET 0.000000 -0.000004 24.445602
					CHANNELS 3 Xrotation Yrotation Zrotation
					JOINT LeftFoot
					{
						OFFSET 0.000000 -0.000004 19.936600
						CHANNELS 3 Xrotation Yrotation Zrotation
						JOINT LeftToeBase
						{
							OFFSET 0.000000 -0.000003 16.853195
							CHANNELS 3 Xrotation Yrotation Zrotation
							End Site
							{
								OFFSET -0.032013 0.940780 8.161865
							}
						}
					}
				}
			}
		}
	}
}
MOTION
Frames: 13
Frame Time: 0.041667
62.265297 -16.612320 99.603302 -0.473522 1.055255 75.406620 -2.152260 0.650873 0.836163 -0.310990 1.276631 1.689810 1.333962 1.296758 1.674386 4.327292 47.483431 -2.639352 1.917004 -29.386383 -3.404058 11.541512 -29.342223 20.117661 125.846686 -20.215798 136.741398 0.000002 -0.000002 0.000008 17.235948 -3.998019 -0.571165 -0.000009 0.000012 -3.005941 -5.000165 -7.998731 0.000069 -46.298116 65.380756 53.424367 -232.904642 82.180618 221.109848 -0.000012 0.000007 0.000003 14.140988 11.677562 -0.785994 0.000011 -0.000014 2.999990 -4.999694 7.999664 0.000014 6.173130 -176.864252 4.597069 -179.999991 0.000005 -1.604994 159.399308 -3.608228 -1.416150 -0.000006 -0.000001 0.735731 71.363845 6.432127 3.225564 46.331987 -6.535432 3.527037 -14.480930 181.160932 4.654672 -0.000005 -0.000004 -1.139510 -19.032853 2.401074 0.988299 -0.000004 -0.000003 -0.504337 74.710740 -7.377485 -0.196562 25.456957 7.355623 -0.000006 
62.299698 -16.611519 99.613602 -0.487917 1.081283 75.502304 -2.147519 0.651825 0.835103 -0.301505 1.279092 1.687701 1.343446 1.299192 1.672245 4.297564 47.443443 -2.655696 1.912159 -29.407147 -3.427930 11.503928 -29.341239 20.068996 126.208454 -20.307419 136.929174 0.000004 -0.000004 0.000007 17.323378 -4.124606 -0.554726 -0.000009 0.000011 -3.005941 -5.000173 -7.998728 0.000067 -46.276748 65.357903 53.404119 -232.695037 82.208123 220.856626 -0.000012 0.000006 0.000003 14.061824 11.661279 -0.776152 0.000013 -0.000014 2.999990 -4.999691 7.999664 0.000014 6.166381 -176.888075 4.592548 -179.999991 0.000005 -1.604993 159.397081 -3.617541 -1.421796 -0.000005 0.000000 0.732438 71.307803 6.433835 3.223281 46.434809 -6.533228 3.528089 -14.499482 181.152121 4.660017 -0.000005 -0.000004 -1.137622 -19.034889 2.389282 0.988345 -0.000004 -0.000003 -0.503467 74.688187 -7.373591 -0.214518 25.456952 7.355620 -0.000006 
62.320702 -16.608418 99.615906 -0.501897 1.108938 75.595509 -2.143458 0.652667 0.834156 -0.293397 1.281273 1.685861 1.351559 1.301368 1.670378 4.274652 47.404091 -2.674526 1.905610 -29.428939 -3.451616 11.471899 -29.347684 20.025442 126.561384 -20.395404 137.118561 0.000005 -0.000003 0.000005 17.396306 -4.243955 -0.538749 -0.000008 0.000012 -3.005943 -5.000168 -7.998730 0.000067 -46.255332 65.337460 53.383382 -232.489613 82.238770 220.609359 -0.000012 0.000008 0.000002 13.982901 11.647377 -0.766844 0.000012 -0.000014 2.999993 -4.999692 7.999664 0.000012 6.155773 -176.910874 4.586806 -179.999991 0.000005 -1.606003 159.394991 -3.624988 -1.425736 -0.000005 -0.000000 0.729326 71.255573 6.435511 3.220975 46.529660 -6.531341 3.528693 -14.520340 181.143297 4.663964 -0.000004 -0.000004 -1.135719 -19.037639 2.378766 0.988535 -0.000005 -0.000003 -0.502534 74.666084 -7.369712 -0.231843 25.456948 7.355624 -0.000006 
62.349998 -16.606121 99.611511 -0.515455 1.138742 75.685838 -2.140259 0.653384 0.833359 -0.287005 1.283133 1.684368 1.357951 1.303214 1.668860 4.260191 47.365716 -2.696661 1.896467 -29.452162 -3.475454 11.446573 -29.365019 19.987582 126.903467 -20.479791 137.309110 0.000005 -0.000004 0.000008 17.451495 -4.355064 -0.523507 -0.000011 0.000012 -3.005941 -5.000170 -7.998732 0.000069 -46.233264 65.319913 53.361427 -232.287685 82.272955 220.367120 -0.000012 0.000008 0.000004 13.903997 11.635778 -0.758042 0.000012 -0.000014 2.999990 -4.999695 7.999665 0.000014 6.140428 -176.933646 4.579404 -179.999991 0.000005 -1.606003 159.393215 -3.632430 -1.429666 -0.000005 -0.000001 0.726416 71.207953 6.436999 3.218968 46.615566 -6.529882 3.528652 -14.544490 181.132532 4.666645 -0.000004 -0.000004 -1.133799 -19.041111 2.369763 0.988886 -0.000005 -0.000003 -0.501530 74.644282 -7.365948 -0.248562 25.456952 7.355624 -0.000006 
62.372795 -16.603718 99.615791 -0.528584 1.171211 75.773108 -2.138088 0.653955 0.832759 -0.282669 1.284624 1.683308 1.362283 1.304681 1.667786 4.255876 47.328570 -2.722972 1.883818 -29.477433 -3.499783 11.429354 -29.396800 19.956218 127.232887 -20.560678 137.500792 0.000004 -0.000003 0.000007 17.486068 -4.456755 -0.509287 -0.000006 0.000012 -3.005941 -5.000170 -7.998734 0.000067 -46.210338 65.305740 53.337972 -232.089719 82.311211 220.130030 -0.000012 0.000007 0.000002 13.824818 11.626596 -0.749755 0.000011 -0.000014 2.999989 -4.999691 7.999664 0.000014 6.119490 -176.956404 4.569966 -179.999991 0.000004 -1.606002 159.391658 -3.638957 -1.433226 -0.000004 0.000000 0.723725 71.165285 6.438368 3.217162 46.691682 -6.528904 3.527798 -14.572536 181.120757 4.667478 -0.000004 -0.000004 -1.131829 -19.045812 2.362473 0.989448 -0.000005 -0.000004 -0.500446 74.622952 -7.362234 -0.264558 25.456955 7.355622 -0.000005 
62.404301 -16.597315 99.621307 -0.541268 1.206876 75.857105 -2.137118 0.654364 0.832393 -0.280727 1.285674 1.682790 1.364234 1.305730 1.667257 4.263327 47.292978 -2.754257 1.866783 -29.505263 -3.524955 11.421608 -29.446561 19.932071 127.547499 -20.638115 137.693444 0.000005 -0.000003 0.000006 17.496556 -4.547972 -0.496415 -0.000007 0.000012 -3.005940 -5.000167 -7.998732 0.000068 -46.185958 65.295427 53.312290 -231.895741 82.354002 219.897804 -0.000012 0.000006 0.000001 13.745243 11.619546 -0.741911 0.000014 -0.000014 2.999989 -4.999690 7.999664 0.000013 6.092088 -176.980119 4.558046 -179.999991 0.000005 -1.604993 159.390319 -3.644541 -1.436412 -0.000005 -0.000000 0.721276 71.128190 6.439589 3.215511 46.756931 -6.528518 3.525926 -14.605369 181.107042 4.666387 -0.000005 -0.000004 -1.129802 -19.051843 2.357121 0.990247 -0.000004 -0.000004 -0.499271 74.602004 -7.358601 -0.279737 25.456952 7.355623 -0.000006 
62.425896 -16.596119 99.622894 -0.553707 1.246461 75.937545 -2.137462 0.654620 0.832257 -0.281418 1.286324 1.682818 1.363544 1.306380 1.667278 4.281968 47.258284 -2.789859 1.845860 -29.535145 -3.550422 11.423824 -29.510222 19.916980 127.847658 -20.710967 137.887053 0.000004 -0.000001 0.000009 17.479825 -4.628504 -0.484963 -0.000008 0.000013 -3.005943 -5.000168 -7.998734 0.000065 -46.159839 65.288836 53.284034 -231.699414 82.401984 219.668419 -0.000012 0.000007 0.000003 13.667688 11.618020 -0.735364 0.000011 -0.000013 2.999990 -4.999692 7.999665 0.000014 6.056811 -177.003792 4.543177 -179.999991 0.000005 -1.604993 159.389527 -3.648269 -1.437869 -0.000005 -0.000001 0.719104 71.097720 6.440626 3.214043 46.808967 -6.528799 3.522907 -14.643700 181.090417 4.662941 -0.000005 -0.000004 -1.127688 -19.059107 2.354144 0.991334 -0.000005 -0.000003 -0.497962 74.581356 -7.355099 -0.294113 25.456952 7.355625 -0.000006 
62.449005 -16.596224 99.618294 -0.566051 1.289886 76.014439 -2.139011 0.654756 0.832294 -0.284529 1.286674 1.683311 1.360434 1.306742 1.667760 4.309410 47.223644 -2.828267 1.822474 -29.566260 -3.575346 11.434885 -29.581027 19.911735 128.136589 -20.777106 138.083899 0.000005 -0.000003 0.000005 17.436785 -4.699444 -0.474828 -0.000007 0.000013 -3.005941 -5.000165 -7.998731 0.000066 -46.132621 65.285530 53.254012 -231.496612 82.455150 219.441165 -0.000012 0.000007 0.000003 13.594408 11.624253 -0.730710 0.000011 -0.000013 2.999992 -4.999693 7.999665 0.000015 6.013621 -177.029405 4.525173 -179.999991 0.000005 -1.603997 159.389458 -3.651083 -1.439928 -0.000004 -0.000000 0.717209 71.074067 6.441465 3.212852 46.846700 -6.529759 3.518795 -14.687514 181.071812 4.656793 -0.000005 -0.000004 -1.125499 -19.067506 2.353637 0.992726 -0.000005 -0.000003 -0.496493 74.561002 -7.351755 -0.307489 25.456950 7.355623 -0.000006 
62.440399 -16.605721 99.620590 -0.578267 1.336503 76.088191 -2.141598 0.654780 0.832480 -0.289715 1.286743 1.684187 1.355243 1.306824 1.668635 4.344629 47.189009 -2.869085 1.797070 -29.598294 -3.599736 11.453594 -29.657805 19.914940 128.414537 -20.838945 138.281537 0.000006 -0.000003 0.000006 17.371150 -4.761720 -0.465887 -0.000009 0.000013 -3.005940 -5.000169 -7.998732 0.000067 -46.104740 65.285277 53.222729 -231.289876 82.512988 219.216957 -0.000012 0.000007 0.000002 13.524505 11.636935 -0.727593 0.000011 -0.000014 2.999990 -4.999696 7.999665 0.000013 5.963735 -177.054008 4.504831 -179.999991 0.000005 -1.602999 159.390141 -3.652034 -1.440234 -0.000005 -0.000001 0.715561 71.056418 6.442208 3.211594 46.872026 -6.531249 3.513810 -14.735816 181.050283 4.648728 -0.000005 -0.000004 -1.123250 -19.076741 2.355265 0.994375 -0.000004 -0.000003 -0.494885 74.540764 -7.348626 -0.320186 25.456952 7.355621 -0.000005 
62.472298 -16.603117 99.623901 -0.590315 1.385627 76.158972 -2.145062 0.654700 0.832784 -0.296630 1.286562 1.685370 1.348331 1.306648 1.669827 4.386611 47.154403 -2.911913 1.770078 -29.631048 -3.623579 11.478789 -29.739651 19.925282 128.683496 -20.895965 138.481512 0.000007 -0.000003 0.000004 17.286545 -4.816276 -0.458130 -0.000006 0.000012 -3.005944 -5.000171 -7.998730 0.000066 -46.076162 65.287627 53.190252 -231.079561 82.574747 218.994839 -0.000012 0.000007 0.000003 13.457003 11.654855 -0.725626 0.000011 -0.000013 2.999990 -4.999692 7.999664 0.000015 5.908327 -177.078583 4.482566 -179.999991 0.000005 -1.601006 159.391330 -3.652995 -1.440510 -0.000004 -0.000001 0.714136 71.043919 6.442819 3.210522 46.886674 -6.533178 3.508143 -14.787722 181.027812 4.638767 -0.000005 -0.000004 -1.120973 -19.086701 2.358668 0.996222 -0.000005 -0.000003 -0.493168 74.520813 -7.345602 -0.332278 25.456948 7.355619 -0.000006 
62.504295 -16.598114 99.626282 -0.602159 1.436610 76.227295 -2.149200 0.654524 0.833179 -0.304931 1.286151 1.686796 1.340029 1.306263 1.671256 4.434361 47.119860 -2.956382 1.741959 -29.664406 -3.646851 11.509331 -29.825677 19.941649 128.944491 -20.948660 138.683781 0.000001 -0.000003 0.000007 17.186504 -4.863966 -0.451389 -0.000005 0.000012 -3.005941 -5.000166 -7.998734 0.000066 -46.047616 65.292463 53.157429 -230.868317 82.639920 218.775891 -0.000012 0.000006 0.000003 13.391127 11.676786 -0.724492 0.000011 -0.000013 2.999994 -4.999693 7.999664 0.000011 5.848624 -177.103117 4.458867 -179.999991 0.000005 -1.599994 159.392819 -3.653033 -1.440413 -0.000004 -0.000000 0.712895 71.035805 6.443290 3.209671 46.892117 -6.535459 3.501979 -14.842221 181.004343 4.627434 -0.000005 -0.000004 -1.118658 -19.097277 2.363526 0.998239 -0.000005 -0.000003 -0.491364 74.501060 -7.342753 -0.343580 25.456952 7.355621 -0.000006 
62.521095 -16.598412 99.627106 -0.613756 1.488772 76.293145 -2.153872 0.654261 0.833639 -0.314273 1.285530 1.688382 1.330686 1.305657 1.672854 4.486846 47.085313 -3.002084 1.713135 -29.698175 -3.669515 11.544003 -29.914682 19.962732 129.198957 -20.997701 138.888400 0.000003 -0.000003 0.000007 17.074855 -4.905721 -0.445580 -0.000008 0.000014 -3.005943 -5.000165 -7.998733 0.000068 -46.019134 65.299218 53.124361 -230.657428 82.707799 218.559838 -0.000012 0.000006 0.000003 13.326090 11.701500 -0.723912 0.000012 -0.000014 2.999991 -4.999690 7.999665 0.000013 5.785796 -177.127665 4.434234 -179.999991 0.000005 -1.598001 159.394663 -3.652142 -1.439946 -0.000007 -0.000001 0.711816 71.031263 6.443655 3.208795 46.890297 -6.537952 3.495541 -14.898418 180.979932 4.615245 -0.000004 -0.000004 -1.116361 -19.108069 2.369497 1.000360 -0.000005 -0.000003 -0.489500 74.481662 -7.339971 -0.354467 25.456950 7.355624 -0.000006 
62.542496 -16.593418 99.628502 -0.625065 1.541467 76.357109 -2.158891 0.653920 0.834136 -0.324310 1.284729 1.690061 1.320653 1.304883 1.674551 4.543096 47.050789 -3.048662 1.684095 -29.732138 -3.691568 11.581619 -30.005882 19.987101 129.447439 -21.044904 139.093524 0.000003 -0.000001 0.000006 16.955231 -4.942462 -0.440570 -0.000007 0.000013 -3.005941 -5.000164 -7.998730 0.000066 -45.991386 65.307769 53.091846 -230.449299 82.777849 218.347679 -0.000012 0.000006 0.000004 13.260920 11.727776 -0.723496 0.000010 -0.000013 2.999990 -4.999695 7.999664 0.000014 5.721054 -177.151242 4.409251 -179.999991 0.000005 -1.597001 159.396589 -3.651255 -1.439473 -0.000003 -0.000001 0.710872 71.029371 6.443982 3.207958 46.882815 -6.540572 3.488999 -14.955418 180.955521 4.602481 -0.000005 -0.000004 -1.114070 -19.119178 2.376237 1.002551 -0.000005 -0.000003 -0.487602 74.462456 -7.337316 -0.364958 25.456955 7.355625 -0.000005 
